<?xml version="1.0" encoding="UTF-8" standalone="no"?>
<svg
   width="602.43103"
   height="602.43103"
   viewBox="0 0 602.43103 602.43103"
   version="1.1"
   id="svg1"
   xmlns:xlink="http://www.w3.org/1999/xlink"
   xmlns="http://www.w3.org/2000/svg"
   xmlns:svg="http://www.w3.org/2000/svg">
  <defs
     id="defs1">
    <linearGradient
       id="linearGradient3">
      <stop
         style="stop-color:#784421;stop-opacity:1"
         offset="0"
         id="stop3" />
      <stop
         style="stop-color:#deaa87;stop-opacity:1"
         offset="1"
         id="stop4" />
    </linearGradient>
    <linearGradient
       xlink:href="#linearGradient3"
       id="linearGradient4"
       x1="-10.871853"
       y1="42.589859"
       x2="31.718006"
       y2="0"
       gradientUnits="userSpaceOnUse"
       gradientTransform="matrix(14.14494,0,0,14.14494,-386.26335,-287.32367)" />
  </defs>
  <g
     id="g4"
     transform="translate(540.04504,287.32367)">
    <path
       id="path2"
       style="fill:url(#linearGradient4);stroke-width:267.305"
       d="M 62.385956,13.89183 A 301.21552,301.21552 0 0 1 -238.82956,315.10735 301.21552,301.21552 0 0 1 -540.04507,13.89183 301.21552,301.21552 0 0 1 -238.82956,-287.32368 301.21552,301.21552 0 0 1 62.385956,13.89183 Z" />
    <path
       d="m -331.85437,-169.48813 h 38.36444 v 57.54668 h -38.36444 z m 76.72889,0 h 38.36444 v 57.54668 h -38.36444 z m 76.72888,0 h 38.36445 v 57.54668 h -38.36445 z m 115.093321,134.275553 h -38.364431 v -19.182222 a 19.18222,19.18222 0 0 0 -19.18222,-19.182221 h -230.18666 a 19.18222,19.18222 0 0 0 -19.18222,19.182221 V 137.42741 a 57.546661,57.546661 0 0 0 57.54666,57.54666 h 153.45778 a 57.546661,57.546661 0 0 0 57.54666,-57.54666 h 38.364431 c 21.158001,0 38.364444,-17.20645 38.364444,-38.364448 V 3.1518671 c 0,-21.1579871 -17.206443,-38.3644441 -38.364444,-38.3644441 z M -101.66771,99.062962 V 3.1518671 h 38.364431 l 0.03819,95.9110949 z"
       id="path1"
       style="fill:#f9f9f9;stroke-width:19.1822" />
    <path
       d="m 138.32577,-96.62944 c 1.63493,18.638202 2.2889,31.390655 2.2889,52.644745 h 10.13656 l 1.30795,-25.831893 c 0.32698,-7.847664 3.92383,-10.790538 13.07944,-10.790538 h 50.68283 c 0.98095,11.117524 1.30794,18.638201 1.30794,32.698599 V 90.406548 c 0,25.831892 -1.63493,28.447782 -16.67629,29.428742 l -15.69532,0.98096 v 9.80957 c 16.02231,-0.65397 31.71764,-0.98095 47.73995,-0.98095 16.02232,0 32.04463,0.32698 48.06694,0.98095 v -9.80957 l -15.69533,-0.98096 c -15.04135,-0.98096 -16.67628,-3.59685 -16.67628,-29.428742 V -47.908527 c 0,-14.71437 0.32699,-21.908061 1.30794,-32.698599 h 50.68283 c 9.15561,0 12.75246,2.942874 13.07944,10.790538 l 1.30795,25.831893 h 10.13656 c 0,-21.25409 0.65397,-34.006543 2.2889,-52.644745 l -70.62897,0.980958 H 204.70392 Z M 317.18741,93.349422 c 0,25.504908 15.36835,40.219278 41.20024,40.219278 5.88575,0 11.44451,-0.98096 13.73341,-2.61589 l 40.54626,-28.12079 -1.63493,27.7938 c 8.50164,-0.65397 17.00327,-0.98095 25.50491,-0.98095 8.17465,0 16.02231,0.32698 24.19696,0.98095 v -9.80957 l -12.75245,-0.65398 c -7.84766,-0.32698 -9.15561,-2.94287 -9.15561,-18.96518 V 41.358649 c 0,-47.7399549 -13.73341,-65.070213 -51.66378,-65.070213 -14.0604,0 -27.13984,3.596846 -39.56531,11.117524 l -17.33026,10.463552 v 21.25409 l 8.50164,2.288901 4.25082,-10.136565 c 6.53972,-15.368342 10.13656,-17.6572439 25.17792,-17.6572439 30.73668,0 43.48914,12.0984817 44.47009,41.8542069 l -32.37161,5.885748 c -44.47009,8.17465 -63.1083,23.542991 -63.1083,51.990773 z m 28.1208,-4.577804 c 0,-12.098482 6.53972,-23.542992 16.3493,-29.755725 8.17465,-4.90479 26.15888,-9.482594 51.00981,-13.07944 v 43.162151 c -9.48259,13.406426 -30.08271,25.831896 -42.83516,25.831896 -13.07944,0 -24.52395,-12.09848 -24.52395,-26.158882 z m 133.4103,-27.793809 c 0,44.143111 31.06367,75.206781 74.87979,75.206781 17.00327,0 41.52722,-6.21274 44.79708,-11.11753 l 6.86671,-10.46355 -3.26986,-4.90479 c -12.09848,6.53972 -22.56204,9.4826 -34.33353,9.4826 -36.29545,0 -60.16542,-28.1208 -60.16542,-71.282951 0,-34.987501 16.3493,-54.6066609 45.77804,-54.6066609 14.38738,0 30.08271,6.53971985 35.96845,14.7143697 l 2.28891,19.9461452 h 9.1556 c 0,-15.041355 1.63493,-28.44778104 4.57781,-40.219277 -13.07944,-7.847664 -24.52395,-11.44451 -37.93038,-11.44451 -15.69532,0 -34.00654,6.212734 -53.6257,18.6382021 -22.88902,14.3873836 -34.9875,37.2764029 -34.9875,66.0511709 z M 622.2654,130.62582 c 13.73341,-0.65397 27.13984,-0.98095 40.87325,-0.98095 13.73341,0 27.13984,0.32698 40.87325,0.98095 v -9.80957 l -15.04135,-0.98096 c -11.11753,-0.65397 -12.09849,-2.94288 -12.09849,-23.542994 V -22.40362 l -2.94287,-1.307944 c -16.67629,6.866706 -33.67956,11.44451 -51.00982,13.406426 v 9.155608 h 12.09849 c 13.07944,0 14.38738,2.2889019 14.38738,23.869977 v 73.571849 c 0,20.600114 -0.98096,22.889024 -12.09848,23.542994 l -15.04136,0.98096 z m 24.52395,-194.556661 c 0,9.80958 6.53972,16.3493 16.3493,16.3493 9.80958,0 16.3493,-6.53972 16.3493,-16.3493 0,-9.482593 -6.53972,-16.349299 -16.02231,-16.349299 -10.13657,0 -16.67629,6.53972 -16.67629,16.349299 z M 716.4376,6.0441618 741.28854,4.7362178 V 98.908184 c 0,24.196966 10.79054,34.660516 35.96846,34.660516 7.52068,0 15.36834,-1.63493 17.33026,-3.92383 l 15.69532,-17.33026 -4.25081,-5.55876 c -8.17465,4.5778 -13.07944,6.21273 -19.29218,6.21273 -12.75245,0 -17.98423,-6.53972 -17.98423,-22.562032 V 4.7362178 h 41.85421 l 2.94287,-17.6572438 -44.79708,1.961916 v -12.425468 c 0,-13.733411 0.98096,-25.504907 3.59685,-46.43201 l -3.92383,-3.596846 c -7.84767,4.90479 -17.65725,9.155607 -27.79381,12.425467 0.98095,9.80958 1.30794,16.022314 1.30794,25.831894 v 22.889019 L 716.4376,-0.82254404 Z M 826.30494,93.349422 c 0,25.504908 15.36834,40.219278 41.20023,40.219278 5.88575,0 11.44451,-0.98096 13.73341,-2.61589 l 40.54627,-28.12079 -1.63493,27.7938 c 8.50163,-0.65397 17.00327,-0.98095 25.5049,-0.98095 8.17465,0 16.02232,0.32698 24.19697,0.98095 v -9.80957 l -12.75246,-0.65398 c -7.84766,-0.32698 -9.1556,-2.94287 -9.1556,-18.96518 V 41.358649 c 0,-47.7399549 -13.73342,-65.070213 -51.66379,-65.070213 -14.0604,0 -27.13984,3.596846 -39.56531,11.117524 l -17.33025,10.463552 v 21.25409 l 8.50163,2.288901 4.25082,-10.136565 c 6.53972,-15.368342 10.13657,-17.6572439 25.17792,-17.6572439 30.73668,0 43.48914,12.0984817 44.4701,41.8542069 l -32.37162,5.885748 c -44.47009,8.17465 -63.10829,23.542991 -63.10829,51.990773 z m 28.12079,-4.577804 c 0,-12.098482 6.53972,-23.542992 16.3493,-29.755725 8.17465,-4.90479 26.15888,-9.482594 51.00982,-13.07944 v 43.162151 c -9.4826,13.406426 -30.08271,25.831896 -42.83517,25.831896 -13.07944,0 -24.52395,-12.09848 -24.52395,-26.158882 z M 1072.5254,59.015893 c 0,26.158879 8.8286,47.739957 24.8509,60.819397 11.1176,9.48259 26.4859,13.73341 47.74,13.73341 6.5397,0 14.0604,-1.30795 15.6953,-2.61589 l 36.2955,-30.4097 -1.635,30.08271 c 8.5017,-0.65397 16.6763,-0.98095 25.178,-0.98095 9.8095,0 19.9461,0.32698 29.7557,0.98095 v -9.80957 l -15.0414,-0.98096 c -11.1175,-0.65397 -12.0985,-2.94288 -12.0985,-23.542994 V -105.13108 l -2.9428,-2.61588 c -14.3874,5.55876 -25.178,8.174646 -51.0098,12.098478 v 9.155608 h 18.3112 c 5.8857,0 8.1746,3.596846 8.1746,13.406426 v 59.838436 c -18.3112,-7.847664 -27.4668,-10.463552 -38.9113,-10.463552 -8.8286,0 -16.6763,1.961916 -24.851,6.212734 l -28.7747,15.041356 c -18.6382,9.8095798 -30.7367,33.679557 -30.7367,61.473367 z m 28.4478,-10.790538 c 0,-35.641473 17.6572,-56.5685769 47.086,-56.5685769 12.4254,0 25.5049,4.2508179 36.9494,12.0984818 6.8667,4.5778039 10.7905,8.8286221 10.7905,11.4445101 v 42.181193 c 0,21.254089 -0.654,24.523949 -4.9048,32.044627 -9.1556,15.36834 -25.1779,25.50491 -40.5462,25.50491 -28.7748,0 -49.3749,-27.793812 -49.3749,-66.705145 z m 168.3978,9.80958 c 0,20.600117 4.5778,38.257361 13.7334,50.682825 12.7524,17.33026 34.9875,27.46683 59.5114,27.46683 12.0985,0 24.197,-2.61589 37.6034,-8.50164 8.8286,-3.59684 15.6954,-7.84766 17.0033,-9.80958 l 6.5397,-11.11752 -4.2508,-3.26986 c -20.9271,12.42547 -28.4478,15.36834 -42.5082,15.36834 -21.2541,0 -38.9113,-9.48259 -48.0669,-25.504908 -6.2128,-10.790538 -8.5017,-19.946146 -9.1556,-38.911333 h 47.7399 c 22.5621,0 36.6225,-0.980958 59.1845,-4.577804 0.327,-4.577804 0.654,-7.520678 0.654,-11.44451 0,-37.60338907 -24.197,-62.127339 -60.8194,-62.127339 -12.0985,0 -26.1589,4.250818 -39.5653,12.098482 -26.8129,15.3683419 -37.6034,35.641473 -37.6034,69.648017 z m 31.0636,-16.676286 c 0,-15.368342 1.308,-22.562033 5.5588,-31.063669 6.8667,-14.387384 20.9271,-23.216006 36.6224,-23.216006 10.7906,0 19.2922,4.2508181 25.178,13.07943994 7.1937,10.79053806 10.4635,20.27313106 10.4635,42.18119306 l -36.6224,0.980958 c -15.0414,0 -23.543,-0.326986 -41.2003,-1.961916 z m 206.0012,-23.542991 c 0,70.628974 51.6638,118.368932 128.5055,118.368932 27.1399,0 51.6638,-5.88575 74.2258,-17.65725 l 9.1557,-16.3493 -2.9429,-3.269856 c -20.2731,13.079436 -42.8352,19.619156 -67.6861,19.619156 -63.7623,0 -106.2705,-42.508176 -106.2705,-106.924416 0,-60.165423 37.2764,-100.057714 93.518,-100.057714 32.0447,0 65.0702,13.07944 65.0702,25.831893 v 23.542992 h 10.1366 c 0.327,-16.3493 1.6349,-28.120796 6.2127,-49.701871 -27.7938,-9.155608 -51.6637,-13.406424 -75.5337,-13.406424 -28.4478,0 -55.5876,6.866704 -77.4957,19.619158 -37.2764,21.908061 -56.8956,56.241591 -56.8956,100.3847 z m 235.1029,75.533764 c 0,25.504908 15.3683,40.219278 41.2002,40.219278 5.8858,0 11.4445,-0.98096 13.7334,-2.61589 l 40.5463,-28.12079 -1.6349,27.7938 c 8.5016,-0.65397 17.0033,-0.98095 25.5049,-0.98095 8.1746,0 16.0223,0.32698 24.197,0.98095 v -9.80957 l -12.7525,-0.65398 c -7.8477,-0.32698 -9.1556,-2.94287 -9.1556,-18.96518 V 41.358649 c 0,-47.7399549 -13.7334,-65.070213 -51.6638,-65.070213 -14.0604,0 -27.1398,3.596846 -39.5653,11.117524 l -17.3303,10.463552 v 21.25409 l 8.5017,2.288901 4.2508,-10.136565 c 6.5397,-15.368342 10.1366,-17.6572439 25.1779,-17.6572439 30.7367,0 43.4892,12.0984817 44.4701,41.8542069 l -32.3716,5.885748 c -44.4701,8.17465 -63.1083,23.542991 -63.1083,51.990773 z m 28.1208,-4.577804 c 0,-12.098482 6.5397,-23.542992 16.3493,-29.755725 8.1746,-4.90479 26.1589,-9.482594 51.0098,-13.07944 v 43.162151 c -9.4826,13.406426 -30.0827,25.831896 -42.8352,25.831896 -13.0794,0 -24.5239,-12.09848 -24.5239,-26.158882 z m 132.4294,41.854202 c 13.7334,-0.65397 27.1398,-0.98095 40.8732,-0.98095 13.7334,0 27.1399,0.32698 40.8733,0.98095 v -9.80957 l -15.0414,-0.98096 c -11.1175,-0.65397 -12.0985,-2.94288 -12.0985,-23.542994 V 3.7552599 h 40.5463 l 2.2889,-17.3302579 c -14.3874,0.980958 -28.4478,1.307944 -42.8352,1.307944 v -27.793809 c 0,-37.603389 4.2508,-46.758997 22.889,-46.758997 8.8287,0 14.7144,2.288902 22.5621,9.155608 l 3.9238,-1.961916 v -25.177922 c -6.8667,-2.61589 -10.7905,-3.59685 -15.0413,-3.59685 -10.4636,0 -21.9081,5.55877 -29.1018,13.733416 l -18.9652,21.581076 c -9.4826,10.790537 -13.7334,25.504907 -13.7334,47.085983 v 13.733411 l -22.562,10.136566 v 7.1936918 l 22.562,-1.3079439 V 96.292296 c 0,20.600114 -0.981,22.889024 -12.0985,23.542994 l -15.0413,0.98096 z m 106.5974,-72.590885 c 0,20.600117 4.5778,38.257361 13.7334,50.682825 12.7524,17.33026 34.9875,27.46683 59.5114,27.46683 12.0985,0 24.197,-2.61589 37.6034,-8.50164 8.8287,-3.59684 15.6954,-7.84766 17.0033,-9.80958 l 6.5397,-11.11752 -4.2508,-3.26986 c -20.9271,12.42547 -28.4478,15.36834 -42.5082,15.36834 -21.2541,0 -38.9113,-9.48259 -48.0669,-25.504908 -6.2127,-10.790538 -8.5016,-19.946146 -9.1556,-38.911333 h 47.7399 c 22.5621,0 36.6225,-0.980958 59.1845,-4.577804 0.327,-4.577804 0.654,-7.520678 0.654,-11.44451 0,-37.60338907 -24.197,-62.127339 -60.8194,-62.127339 -12.0985,0 -26.1589,4.250818 -39.5653,12.098482 -26.8129,15.3683419 -37.6034,35.641473 -37.6034,69.648017 z M 2039.75,41.358649 c 0,-15.368342 1.3079,-22.562033 5.5587,-31.063669 6.8667,-14.387384 20.9271,-23.216006 36.6224,-23.216006 10.7906,0 19.2922,4.2508181 25.178,13.07943994 7.1937,10.79053806 10.4635,20.27313106 10.4635,42.18119306 l -36.6224,0.980958 c -15.0414,0 -23.543,-0.326986 -41.2002,-1.961916 z m 17.0032,-77.168694 h 13.0795 l 47.0859,-29.42874 c 10.7906,-6.866705 13.0795,-9.482593 13.0795,-15.368341 0,-6.212734 -4.5778,-11.117524 -10.1366,-11.117524 -4.9048,0 -10.7905,3.596846 -17.9842,10.790538 z"
       id="text4"
       style="font-size:326.986px;font-family:'TeX Gyre Pagella';-inkscape-font-specification:'TeX Gyre Pagella, Normal';fill:#333333;stroke-width:18.8976"
       aria-label="Tacita de Café" />
  </g>
</svg>
